<svg xmlns="http://www.w3.org/2000/svg" class="svg-logo" width="2400" height="2400" viewBox="0 0 630 430" style="height: auto;"><rect width="630" height="630" y="-100" rx="0" ry="0" fill="transparent" fill-opacity="0"></rect><g data-element="wrapper" transform="translate(157.49999999999704 107.499999999998) scale(0.5000000000000093)"><g ><g data-element="icon" transform="scale(0.14492753623188406) translate(-514.65 1183.5)"><path id="color_x5F_1_34_" d="M438,480c0,6.627-5.373,12-12,12h-12c-6.627,0-12-5.373-12-12s5.373-12,12-12h12    C432.627,468,438,473.373,438,480z M342,468h-12c-6.627,0-12,5.373-12,12s5.373,12,12,12h12c6.627,0,12-5.373,12-12    S348.627,468,342,468z M258,468h-12c-6.627,0-12,5.373-12,12s5.373,12,12,12h12c6.627,0,12-5.373,12-12S264.627,468,258,468z     M174,456c-6.627,0-12,5.373-12,12v12c0,6.627,5.373,12,12,12s12-5.373,12-12v-12C186,461.373,180.627,456,174,456z M174,372    c-6.627,0-12,5.373-12,12v12c0,6.627,5.373,12,12,12s12-5.373,12-12v-12C186,377.373,180.627,372,174,372z M230.485,231.515    c-4.687-4.687-12.284-4.687-16.971,0L174,271.029l-39.515-39.515c-4.687-4.687-12.284-4.687-16.971,0    c-4.686,4.687-4.686,12.284,0,16.971L157.029,288l-39.515,39.515c-4.686,4.687-4.686,12.284,0,16.971    c2.343,2.343,5.414,3.515,8.485,3.515s6.142-1.171,8.485-3.515L174,304.971l39.515,39.515c2.343,2.343,5.414,3.515,8.485,3.515    s6.142-1.171,8.485-3.515c4.686-4.687,4.686-12.284,0-16.971L190.971,288l39.515-39.515    C235.171,243.799,235.171,236.201,230.485,231.515z M474,156c0-26.51-21.49-48-48-48s-48,21.49-48,48s21.49,48,48,48    S474,182.51,474,156z M498,576H102c-33.084,0-60-26.916-60-60V204c0-33.084,26.916-60,60-60h192.551    C300.635,76.818,357.26,24,426,24c72.785,0,132,59.215,132,132v360C558,549.084,531.084,576,498,576z M425.995,378.456    c26.517-29.295,106.147-124.979,107.954-219.202c0.001-0.036,0.002-0.073,0.003-0.109C533.98,158.1,534,157.052,534,156    c0-59.551-48.449-108-108-108S318,96.449,318,156c0,1.052,0.02,2.1,0.049,3.145c0.001,0.036,0.002,0.073,0.003,0.109    C319.86,253.606,399.466,349.181,425.995,378.456z M534,516V259.203c-9.925,22.618-22.9,45.909-38.916,69.784    c-30.008,44.733-59.363,74.262-60.598,75.497c-2.25,2.251-5.303,3.516-8.486,3.516s-6.235-1.265-8.486-3.516    c-1.235-1.235-30.59-30.764-60.598-75.497C318.36,271.514,297.363,217.407,294.397,168H102c-19.851,0-36,16.149-36,36v312    c0,19.851,16.149,36,36,36h396C517.851,552,534,535.851,534,516z" fill="#000000" fill-opacity="1"></path></g><path d="M70.88 207.75L70.88 211.44Q70.88 214.22 70.19 216.41Q69.50 218.59 68.33 220.27Q67.16 221.94 65.63 223.13Q64.09 224.31 62.42 225.06Q60.75 225.81 59.05 226.16Q57.34 226.50 55.84 226.50L55.84 226.50L37.47 226.50L37.47 218.38L55.84 218.38Q57.41 218.25 58.67 217.73Q59.94 217.22 60.84 216.34Q61.75 215.47 62.25 214.23Q62.75 213 62.75 211.44L62.75 211.44L62.75 207.75Q62.59 206.22 62.09 204.94Q61.59 203.66 60.73 202.75Q59.88 201.84 58.66 201.33Q57.44 200.81 55.84 200.81L55.84 200.81L37.53 200.81Q35.91 200.81 35.06 201.66Q34.22 202.50 34.22 204.09L34.22 204.09L34.22 237.50L26.09 237.50L26.09 204.09Q26.09 200.97 27.23 198.78Q28.38 196.59 30.08 195.25Q31.78 193.91 33.78 193.30Q35.78 192.69 37.47 192.69L37.47 192.69L55.84 192.69Q58.59 192.69 60.78 193.39Q62.97 194.09 64.64 195.27Q66.31 196.44 67.48 197.97Q68.66 199.50 69.42 201.17Q70.19 202.84 70.53 204.55Q70.88 206.25 70.88 207.75L70.88 207.75ZM106.31 203.72L106.31 211.84L88.03 211.84Q86.38 211.84 85.53 212.67Q84.69 213.50 84.69 215.09L84.69 215.09L84.69 237.50L76.56 237.50L76.56 215.09Q76.56 213 77.09 211.34Q77.63 209.69 78.52 208.42Q79.41 207.16 80.56 206.27Q81.72 205.38 82.98 204.81Q84.25 204.25 85.55 203.98Q86.84 203.72 87.97 203.72L87.97 203.72L106.31 203.72ZM147.88 214.91L147.88 214.91Q147.88 216.59 147.28 218.55Q146.69 220.50 145.36 222.17Q144.03 223.84 141.89 224.97Q139.75 226.09 136.69 226.09L136.69 226.09L122.03 226.09L122.03 218.38L136.69 218.38Q138.34 218.38 139.25 217.36Q140.16 216.34 140.16 214.84L140.16 214.84Q140.16 213.25 139.14 212.34Q138.13 211.44 136.69 211.44L136.69 211.44L122.03 211.44Q120.38 211.44 119.47 212.45Q118.56 213.47 118.56 214.97L118.56 214.97L118.56 226.31Q118.56 227.94 119.58 228.84Q120.59 229.75 122.09 229.75L122.09 229.75L136.69 229.75L136.69 237.50L122.03 237.50Q120.34 237.50 118.39 236.91Q116.44 236.31 114.77 234.98Q113.09 233.66 111.97 231.52Q110.84 229.38 110.84 226.31L110.84 226.31L110.84 214.91Q110.84 213.22 111.44 211.27Q112.03 209.31 113.36 207.64Q114.69 205.97 116.83 204.84Q118.97 203.72 122.03 203.72L122.03 203.72L136.69 203.72Q138.38 203.72 140.33 204.31Q142.28 204.91 143.95 206.23Q145.63 207.56 146.75 209.70Q147.88 211.84 147.88 214.91ZM182.47 211.44L182.47 218.75L153.16 218.75L153.16 211.44L182.47 211.44ZM227.66 211L227.66 219.19L202 219.19L202 211L227.66 211ZM231.31 229.38L231.31 237.50L202 237.50Q200.31 237.50 198.31 236.91Q196.31 236.31 194.61 234.95Q192.91 233.59 191.77 231.42Q190.63 229.25 190.63 226.09L190.63 226.09L190.63 196.78Q190.63 195.94 190.94 195.19Q191.25 194.44 191.80 193.88Q192.34 193.31 193.09 193Q193.84 192.69 194.72 192.69L194.72 192.69L231.31 192.69L231.31 200.81L198.75 200.81L198.75 226.09Q198.75 227.69 199.59 228.53Q200.44 229.38 202.06 229.38L202.06 229.38L231.31 229.38ZM269.72 203.72L278.34 203.72Q276.97 208 275.13 212.16Q273.28 216.31 270.89 220.08Q268.50 223.84 265.55 227.05Q262.59 230.25 259.02 232.58Q255.44 234.91 251.23 236.23Q247.03 237.56 242.13 237.56L242.13 237.56Q241.28 237.56 240.53 237.25Q239.78 236.94 239.22 236.39Q238.66 235.84 238.34 235.11Q238.03 234.38 238.03 233.53L238.03 233.53L238.03 203.72L246.16 203.72L246.16 229.13Q249.13 229.13 251.86 227.84Q254.59 226.56 257.03 224.45Q259.47 222.34 261.55 219.66Q263.63 216.97 265.25 214.14Q266.88 211.31 268.02 208.59Q269.16 205.88 269.72 203.72L269.72 203.72ZM317.59 214.91L317.59 214.91Q317.59 216.59 317 218.55Q316.41 220.50 315.08 222.17Q313.75 223.84 311.61 224.97Q309.47 226.09 306.41 226.09L306.41 226.09L291.75 226.09L291.75 218.38L306.41 218.38Q308.06 218.38 308.97 217.36Q309.88 216.34 309.88 214.84L309.88 214.84Q309.88 213.25 308.86 212.34Q307.84 211.44 306.41 211.44L306.41 211.44L291.75 211.44Q290.09 211.44 289.19 212.45Q288.28 213.47 288.28 214.97L288.28 214.97L288.28 226.31Q288.28 227.94 289.30 228.84Q290.31 229.75 291.81 229.75L291.81 229.75L306.41 229.75L306.41 237.50L291.75 237.50Q290.06 237.50 288.11 236.91Q286.16 236.31 284.48 234.98Q282.81 233.66 281.69 231.52Q280.56 229.38 280.56 226.31L280.56 226.31L280.56 214.91Q280.56 213.22 281.16 211.27Q281.75 209.31 283.08 207.64Q284.41 205.97 286.55 204.84Q288.69 203.72 291.75 203.72L291.75 203.72L306.41 203.72Q308.09 203.72 310.05 204.31Q312 204.91 313.67 206.23Q315.34 207.56 316.47 209.70Q317.59 211.84 317.59 214.91ZM360.50 218.75L360.50 237.50L352.38 237.50L352.38 218.75Q352.38 217.16 351.83 215.89Q351.28 214.63 350.34 213.72Q349.41 212.81 348.14 212.33Q346.88 211.84 345.41 211.84L345.41 211.84L331.19 211.84L331.19 237.50L323.06 237.50L323.06 207.75Q323.06 206.91 323.38 206.17Q323.69 205.44 324.25 204.89Q324.81 204.34 325.56 204.03Q326.31 203.72 327.16 203.72L327.16 203.72L345.47 203.72Q347 203.72 348.70 204.06Q350.41 204.41 352.08 205.17Q353.75 205.94 355.27 207.11Q356.78 208.28 357.95 209.95Q359.13 211.63 359.81 213.81Q360.50 216 360.50 218.75L360.50 218.75ZM397.34 203.72L397.34 211.84L383.16 211.84L383.16 237.50L374.94 237.50L374.94 211.84L364.38 211.84L364.38 203.72L374.94 203.72L374.94 192.69L383.16 192.69L383.16 203.72L397.34 203.72ZM468.56 207.75L468.56 211.44Q468.56 214.22 467.88 216.41Q467.19 218.59 466.02 220.27Q464.84 221.94 463.31 223.13Q461.78 224.31 460.11 225.06Q458.44 225.81 456.73 226.16Q455.03 226.50 453.53 226.50L453.53 226.50L435.16 226.50L435.16 218.38L453.53 218.38Q455.09 218.25 456.36 217.73Q457.63 217.22 458.53 216.34Q459.44 215.47 459.94 214.23Q460.44 213 460.44 211.44L460.44 211.44L460.44 207.75Q460.28 206.22 459.78 204.94Q459.28 203.66 458.42 202.75Q457.56 201.84 456.34 201.33Q455.13 200.81 453.53 200.81L453.53 200.81L435.22 200.81Q433.59 200.81 432.75 201.66Q431.91 202.50 431.91 204.09L431.91 204.09L431.91 237.50L423.78 237.50L423.78 204.09Q423.78 200.97 424.92 198.78Q426.06 196.59 427.77 195.25Q429.47 193.91 431.47 193.30Q433.47 192.69 435.16 192.69L435.16 192.69L453.53 192.69Q456.28 192.69 458.47 193.39Q460.66 194.09 462.33 195.27Q464 196.44 465.17 197.97Q466.34 199.50 467.11 201.17Q467.88 202.84 468.22 204.55Q468.56 206.25 468.56 207.75L468.56 207.75ZM489.44 229.38L489.44 237.50L485.81 237.50Q484.06 237.50 482.08 236.91Q480.09 236.31 478.38 234.95Q476.66 233.59 475.53 231.42Q474.41 229.25 474.41 226.09L474.41 226.09L474.41 189.44L482.53 189.44L482.53 226.09Q482.53 227.59 483.47 228.48Q484.41 229.38 485.81 229.38L485.81 229.38L489.44 229.38ZM529.53 214.91L529.53 226.31Q529.53 228 528.94 229.95Q528.34 231.91 527.02 233.58Q525.69 235.25 523.55 236.38Q521.41 237.50 518.34 237.50L518.34 237.50L503.69 237.50Q502 237.50 500.05 236.91Q498.09 236.31 496.42 234.98Q494.75 233.66 493.63 231.52Q492.50 229.38 492.50 226.31L492.50 226.31Q492.50 224.63 493.09 222.66Q493.69 220.69 495.02 219.02Q496.34 217.34 498.48 216.22Q500.63 215.09 503.69 215.09L503.69 215.09L518.34 215.09L518.34 222.84L503.69 222.84Q502.03 222.84 501.13 223.86Q500.22 224.88 500.22 226.38L500.22 226.38Q500.22 227.97 501.27 228.86Q502.31 229.75 503.75 229.75L503.75 229.75L518.34 229.75Q520 229.75 520.91 228.75Q521.81 227.75 521.81 226.25L521.81 226.25L521.81 214.91Q521.81 213.31 520.83 212.38Q519.84 211.44 518.34 211.44L518.34 211.44L500.50 211.44L500.50 203.72L518.34 203.72Q520.03 203.72 521.98 204.31Q523.94 204.91 525.61 206.23Q527.28 207.56 528.41 209.70Q529.53 211.84 529.53 214.91L529.53 214.91ZM573.91 218.75L573.91 237.50L565.78 237.50L565.78 218.75Q565.78 217.16 565.23 215.89Q564.69 214.63 563.75 213.72Q562.81 212.81 561.55 212.33Q560.28 211.84 558.81 211.84L558.81 211.84L544.59 211.84L544.59 237.50L536.47 237.50L536.47 207.75Q536.47 206.91 536.78 206.17Q537.09 205.44 537.66 204.89Q538.22 204.34 538.97 204.03Q539.72 203.72 540.56 203.72L540.56 203.72L558.88 203.72Q560.41 203.72 562.11 204.06Q563.81 204.41 565.48 205.17Q567.16 205.94 568.67 207.11Q570.19 208.28 571.36 209.95Q572.53 211.63 573.22 213.81Q573.91 216 573.91 218.75L573.91 218.75ZM618.47 218.75L618.47 237.50L610.34 237.50L610.34 218.75Q610.34 217.16 609.80 215.89Q609.25 214.63 608.31 213.72Q607.38 212.81 606.11 212.33Q604.84 211.84 603.38 211.84L603.38 211.84L589.16 211.84L589.16 237.50L581.03 237.50L581.03 207.75Q581.03 206.91 581.34 206.17Q581.66 205.44 582.22 204.89Q582.78 204.34 583.53 204.03Q584.28 203.72 585.13 203.72L585.13 203.72L603.44 203.72Q604.97 203.72 606.67 204.06Q608.38 204.41 610.05 205.17Q611.72 205.94 613.23 207.11Q614.75 208.28 615.92 209.95Q617.09 211.63 617.78 213.81Q618.47 216 618.47 218.75L618.47 218.75ZM661.94 214.91L661.94 214.91Q661.94 216.59 661.34 218.55Q660.75 220.50 659.42 222.17Q658.09 223.84 655.95 224.97Q653.81 226.09 650.75 226.09L650.75 226.09L636.09 226.09L636.09 218.38L650.75 218.38Q652.41 218.38 653.31 217.36Q654.22 216.34 654.22 214.84L654.22 214.84Q654.22 213.25 653.20 212.34Q652.19 211.44 650.75 211.44L650.75 211.44L636.09 211.44Q634.44 211.44 633.53 212.45Q632.63 213.47 632.63 214.97L632.63 214.97L632.63 226.31Q632.63 227.94 633.64 228.84Q634.66 229.75 636.16 229.75L636.16 229.75L650.75 229.75L650.75 237.50L636.09 237.50Q634.41 237.50 632.45 236.91Q630.50 236.31 628.83 234.98Q627.16 233.66 626.03 231.52Q624.91 229.38 624.91 226.31L624.91 226.31L624.91 214.91Q624.91 213.22 625.50 211.27Q626.09 209.31 627.42 207.64Q628.75 205.97 630.89 204.84Q633.03 203.72 636.09 203.72L636.09 203.72L650.75 203.72Q652.44 203.72 654.39 204.31Q656.34 204.91 658.02 206.23Q659.69 207.56 660.81 209.70Q661.94 211.84 661.94 214.91ZM696.97 203.72L696.97 211.84L678.69 211.84Q677.03 211.84 676.19 212.67Q675.34 213.50 675.34 215.09L675.34 215.09L675.34 237.50L667.22 237.50L667.22 215.09Q667.22 213 667.75 211.34Q668.28 209.69 669.17 208.42Q670.06 207.16 671.22 206.27Q672.38 205.38 673.64 204.81Q674.91 204.25 676.20 203.98Q677.50 203.72 678.63 203.72L678.63 203.72L696.97 203.72Z" data-element="company-name" data-text-path="" data-text="Pre-Event Planner" data-font-family="Audiowide" fill="#000000" fill-opacity="1"></path></g></g></svg>